<svg width="22" height="22" viewBox="0 0 22 22" fill="none" xmlns="http://www.w3.org/2000/svg">
<circle cx="11" cy="11" r="11" fill="white"/>
<path d="M13.971 8.837C14.517 8.837 15.0023 8.94967 15.427 9.175C15.8603 9.39167 16.1983 9.72967 16.441 10.189C16.6923 10.6483 16.818 11.242 16.818 11.97V16H14.348V12.373C14.348 11.8703 14.2527 11.5063 14.062 11.281C13.8713 11.047 13.6113 10.93 13.282 10.93C13.048 10.93 12.8357 10.9863 12.645 11.099C12.4543 11.2117 12.307 11.385 12.203 11.619C12.099 11.8443 12.047 12.139 12.047 12.503V16H9.577V12.373C9.577 11.8703 9.48167 11.5063 9.291 11.281C9.109 11.047 8.849 10.93 8.511 10.93C8.26833 10.93 8.05167 10.9863 7.861 11.099C7.679 11.2117 7.53167 11.385 7.419 11.619C7.315 11.8443 7.263 12.139 7.263 12.503V16H4.793V8.954H7.146V10.917L6.678 10.358C6.938 9.85533 7.29333 9.47833 7.744 9.227C8.19467 8.967 8.69733 8.837 9.252 8.837C9.88467 8.837 10.4393 9.00167 10.916 9.331C11.4013 9.65167 11.7263 10.1543 11.891 10.839L11.085 10.67C11.3363 10.098 11.7133 9.65167 12.216 9.331C12.7273 9.00167 13.3123 8.837 13.971 8.837Z" fill="black"/>
<circle cx="12.5" cy="5.5" r="1.5" fill="#E02D71"/>
</svg>
